<?xml version="1.0" encoding="UTF-8"?>
<svg width="7.308mm" height="9.2628mm" version="1.1" viewBox="0 0 7.308 9.2628" xmlns="http://www.w3.org/2000/svg" xmlns:cc="http://creativecommons.org/ns#" xmlns:dc="http://purl.org/dc/elements/1.1/" xmlns:rdf="http://www.w3.org/1999/02/22-rdf-syntax-ns#">
 <defs>
  <filter id="filter3309" x="-.035786" y="-.098307" width="1.0716" height="1.1966" color-interpolation-filters="sRGB">
   <feGaussianBlur stdDeviation="0.086500425"/>
  </filter>
 </defs>
 <metadata>
  <rdf:RDF>
   <cc:Work rdf:about="">
    <dc:format>image/svg+xml</dc:format>
    <dc:type rdf:resource="http://purl.org/dc/dcmitype/StillImage"/>
    <dc:title/>
   </cc:Work>
  </rdf:RDF>
 </metadata>
 <g transform="translate(-11.4 -10.656)">
  <g transform="matrix(.98646 0 0 .98646 -53.267 -118.49)">
   <path d="m69.262 137.99c-1.5994 0-2.9006 0.44322-2.9006 0.87984 0 0.65599 2.7208 1.199 2.8367 1.2257 0.01848 4e-3 0.04118 6e-3 0.06388 6e-3 0.02218 0 0.04488-2e-3 0.06309-6e-3 0.11589-0.0261 2.8375-0.55805 2.8375-1.2256 0-0.43689-1.3012-0.88011-2.9006-0.88011z" fill="#282828" filter="url(#filter3309)" opacity=".61366" stroke-width=".26398"/>
   <g transform="matrix(.26458 0 0 .26458 65.555 130.92)">
    <path d="M 14,0 C 6.28,0 0,6.717 0,13.332 0,23.273 13.132,31.501 13.691,31.904 13.78,31.968 13.891,32 14,32 14.107,32 14.217,31.969 14.305,31.906 14.864,31.511 28,23.45 28,13.332 28,6.717 21.72,0 14,0 Z" fill="#fff"/>
    <g fill="#0b8c61">
     <path d="m13.999 8.546c-1.24 0-2.249 1.009-2.249 2.248 0 1.242 1.009 2.253 2.249 2.253 1.241 0 2.251-1.01 2.251-2.253 0-1.239-1.01-2.248-2.251-2.248z"/>
     <path d="m14 6.348c-2.453 0-4.448 1.995-4.448 4.448 0 0.859 0.468 3.112 3.602 8.541l0.387 0.671 0.134 0.225 0.09 0.15 0.043 0.072 0.085 0.144 0.108 0.178 0.104-0.172 0.036-0.061 0.088-0.149 0.032-0.054 0.19-0.319 0.395-0.685c3.134-5.44 3.602-7.687 3.602-8.542 0-2.452-1.996-4.447-4.448-4.447zm-1e-3 7.449c-1.654 0-2.999-1.347-2.999-3.003 0-1.655 1.346-2.998 2.999-2.998 1.655 0 3.001 1.345 3.001 2.998 0 1.657-1.346 3.003-3.001 3.003z"/>
     <path d="m14 0c-7.72 0-14 6.717-14 13.333 0 9.941 13.132 18.169 13.691 18.571 0.089 0.064 0.2 0.096 0.309 0.096 0.107 0 0.217-0.031 0.305-0.094 0.559-0.395 13.695-8.456 13.695-18.573 0-6.616-6.28-13.333-14-13.333zm5.336 22.021c-2e-3 1.728-2.686 2.632-5.337 2.632-2.652 0-5.337-0.905-5.337-2.634 0-1.158 1.352-2.099 3.465-2.462-1.721-3.01-3.577-6.721-3.577-8.76 0-3.004 2.444-5.448 5.448-5.448s5.448 2.444 5.449 5.447c0 2.036-1.858 5.75-3.578 8.762 2.115 0.362 3.467 1.302 3.467 2.463z"/>
     <path d="m15.175 20.763c-0.029 0.048-0.059 0.1-0.088 0.148-0.04 0.068-0.084 0.142-0.121 0.204-0.111 0.184-0.206 0.339-0.293 0.483-0.021 0.03-0.042 0.066-0.061 0.096-0.081 0.133-0.142 0.231-0.194 0.313-0.015 0.025-0.032 0.054-0.045 0.073-0.052 0.082-0.08 0.125-0.08 0.125l-0.295 0.463-0.293-0.463s-0.031-0.048-0.085-0.134c-6e-3 -9e-3 -0.013-0.023-0.019-0.029-0.053-0.086-0.123-0.198-0.212-0.345-0.025-0.038-0.052-0.086-0.079-0.127-0.083-0.136-0.17-0.278-0.274-0.448-0.042-0.072-0.089-0.15-0.134-0.225-0.026-0.044-0.053-0.09-0.078-0.132l-0.381 0.061c-1.729 0.277-2.477 0.925-2.477 1.195 0 0.172 0.269 0.481 0.859 0.754 0.8 0.37 1.926 0.574 3.172 0.574 2.608 0 4.031-0.878 4.031-1.329 0-0.269-0.748-0.917-2.476-1.195z"/>
    </g>
   </g>
   <g transform="matrix(.26458 0 0 .26458 65.555 130.92)" fill="#8876be" style="mix-blend-mode:overlay">
    <path d="M 14,0 C 6.28,0 0,6.717 0,13.332 0,23.273 13.132,31.501 13.691,31.904 13.78,31.968 13.891,32 14,32 14.107,32 14.217,31.969 14.305,31.906 14.864,31.511 28,23.45 28,13.332 28,6.717 21.72,0 14,0 Z"/>
    <path d="m13.999 8.546c-1.24 0-2.249 1.009-2.249 2.248 0 1.242 1.009 2.253 2.249 2.253 1.241 0 2.251-1.01 2.251-2.253 0-1.239-1.01-2.248-2.251-2.248z"/>
    <path d="m14 6.348c-2.453 0-4.448 1.995-4.448 4.448 0 0.859 0.468 3.112 3.602 8.541l0.387 0.671 0.134 0.225 0.09 0.15 0.043 0.072 0.085 0.144 0.108 0.178 0.104-0.172 0.036-0.061 0.088-0.149 0.032-0.054 0.19-0.319 0.395-0.685c3.134-5.44 3.602-7.687 3.602-8.542 0-2.452-1.996-4.447-4.448-4.447zm-1e-3 7.449c-1.654 0-2.999-1.347-2.999-3.003 0-1.655 1.346-2.998 2.999-2.998 1.655 0 3.001 1.345 3.001 2.998 0 1.657-1.346 3.003-3.001 3.003z"/>
    <path d="m14 0c-7.72 0-14 6.717-14 13.333 0 9.941 13.132 18.169 13.691 18.571 0.089 0.064 0.2 0.096 0.309 0.096 0.107 0 0.217-0.031 0.305-0.094 0.559-0.395 13.695-8.456 13.695-18.573 0-6.616-6.28-13.333-14-13.333zm5.336 22.021c-2e-3 1.728-2.686 2.632-5.337 2.632-2.652 0-5.337-0.905-5.337-2.634 0-1.158 1.352-2.099 3.465-2.462-1.721-3.01-3.577-6.721-3.577-8.76 0-3.004 2.444-5.448 5.448-5.448s5.448 2.444 5.449 5.447c0 2.036-1.858 5.75-3.578 8.762 2.115 0.362 3.467 1.302 3.467 2.463z"/>
    <path d="m15.175 20.763c-0.029 0.048-0.059 0.1-0.088 0.148-0.04 0.068-0.084 0.142-0.121 0.204-0.111 0.184-0.206 0.339-0.293 0.483-0.021 0.03-0.042 0.066-0.061 0.096-0.081 0.133-0.142 0.231-0.194 0.313-0.015 0.025-0.032 0.054-0.045 0.073-0.052 0.082-0.08 0.125-0.08 0.125l-0.295 0.463-0.293-0.463s-0.031-0.048-0.085-0.134c-6e-3 -9e-3 -0.013-0.023-0.019-0.029-0.053-0.086-0.123-0.198-0.212-0.345-0.025-0.038-0.052-0.086-0.079-0.127-0.083-0.136-0.17-0.278-0.274-0.448-0.042-0.072-0.089-0.15-0.134-0.225-0.026-0.044-0.053-0.09-0.078-0.132l-0.381 0.061c-1.729 0.277-2.477 0.925-2.477 1.195 0 0.172 0.269 0.481 0.859 0.754 0.8 0.37 1.926 0.574 3.172 0.574 2.608 0 4.031-0.878 4.031-1.329 0-0.269-0.748-0.917-2.476-1.195z"/>
   </g>
  </g>
 </g>
</svg>
