<?xml version="1.0" encoding="UTF-8"?>
<svg width="7.4083mm" height="9.6373mm" version="1.1" viewBox="0 0 7.4083 9.6373" xmlns="http://www.w3.org/2000/svg" xmlns:cc="http://creativecommons.org/ns#" xmlns:dc="http://purl.org/dc/elements/1.1/" xmlns:osb="http://www.openswatchbook.org/uri/2009/osb" xmlns:rdf="http://www.w3.org/1999/02/22-rdf-syntax-ns#" xmlns:xlink="http://www.w3.org/1999/xlink">
 <defs>
  <filter id="filter3309" x="-.035786" y="-.098307" width="1.0716" height="1.1966" color-interpolation-filters="sRGB">
   <feGaussianBlur stdDeviation="0.086500425"/>
  </filter>
 </defs>
 <metadata>
  <rdf:RDF>
   <cc:Work rdf:about="">
    <dc:format>image/svg+xml</dc:format>
    <dc:type rdf:resource="http://purl.org/dc/dcmitype/StillImage"/>
    <dc:title/>
   </cc:Work>
  </rdf:RDF>
 </metadata>
 <g transform="translate(-69.16 -122.14)">
  <g fill="#0b8c00" stroke-width=".26458">
   <path d="m71.663 124.48-5.29e-4 0.12515-7.94e-4 0.63421c0.29051-9e-3 0.60854-0.0138 0.90964-0.0138 0.05318 0 0.1061 2.6e-4 0.15875 5.3e-4l-0.24739-0.74718z"/>
   <circle cx="71.469" cy="126.76" r=".41513"/>
   <path d="m72.439 126.67c-4e-3 -0.0283-0.0071-0.0526-0.0098-0.0746-0.01244-0.10107-0.04366-0.19606-0.08599-0.28443-0.01296-0.0254-0.02566-0.0511-0.04101-0.0754-0.01005-0.0167-0.02064-0.0328-0.03149-0.0487-0.136-0.19129-0.33814-0.33099-0.57309-0.38735-0.05345-0.0106-0.10822-0.0161-0.16378-0.0161-0.07805 0-0.15663 0.0109-0.2331 0.0323-0.07303 0.0204-0.12885 0.0296-0.18124 0.0296-0.0071 0-0.0127-2e-3 -0.01958-2e-3 -0.36116 0.14632-0.61754 0.49954-0.61754 0.91308 0 0.54372 0.44238 0.9861 0.98637 0.9861 0.53843 0 0.97605-0.43444 0.98399-0.97128l-0.01085-0.0783zm-0.97023 0.63315c-0.30215 0-0.54769-0.24553-0.54769-0.54742s0.24553-0.54769 0.54769-0.54769c0.30189 0 0.54742 0.2458 0.54742 0.54769s-0.24553 0.54742-0.54742 0.54742z"/>
   <circle cx="74.67" cy="127.17" r=".26617"/>
   <path d="m75.171 126.22c0.0344-0.18415 0.05609-0.37121 0.0717-0.55774 0.01455-0.17436-0.02963-0.21537-0.20055-0.22198-0.25426-9e-3 -0.48895-0.0188-0.74295-0.0288-0.0077-2.7e-4 -0.02037-6e-3 -0.02037-0.0159 0-0.19156 0.0098-0.65722 0.0098-0.65722s-0.05001-0.0365-0.12012-0.0365c-0.03069 0-0.06535 7e-3 -0.10134 0.0272v0.6686s-0.31009-8e-3 -0.75248-0.0172c-0.01958-5.3e-4 -0.07435-0.0339-0.10001-0.10372-0.06641-0.18362-0.21167-0.54107-0.40217-1.0917 0 0-0.09869-0.23495-0.34819-0.23495h-1.238v1.3756s-0.0934 0.0392-0.17171 0.0471c-0.02064 0.12488-0.01773 0.18812 0.03043 0.20743 0.12171-0.0397 0.24924-0.0667 0.38391-0.0667 0.10292 0 0.20135 0.0161 0.29686 0.0394 0.29607 0.0627 0.55589 0.24421 0.72708 0.49715 9e-3 0.0127 0.01693 0.0257 0.0254 0.0389 0.02487 0.04 0.04736 0.081 0.06747 0.12435 0.02196 0.0442 0.04075 0.0894 0.05741 0.13626 0.0011 3e-3 0.0021 6e-3 0.0029 0.01 0.0336 0.0974 0.0545 0.1995 0.06297 0.30586 0.02672 4e-3 0.05186 0.01 0.07646 0.01h0.0053c0.57573-0.0148 1.1523-0.0159 1.7275-0.0447-0.23971 0.0664-0.41672 0.28628-0.41672 0.54689 0 0.31327 0.25453 0.56806 0.56832 0.56806 0.31327 0 0.56806-0.25479 0.56806-0.56806 0-0.28337-0.20902-0.51805-0.48048-0.56065 0.42439-0.027 0.34237-0.0143 0.41354-0.39635zm-2.6001-0.85592c-0.35534 0-0.72205 7e-3 -1.0419 0.0182l7.93e-4 -0.77152 0.0011-0.25665 1.047-2e-3 0.33417 1.0088 0.01191 5e-3c-0.11483-1e-3 -0.23336-2e-3 -0.35295-2e-3zm2.4313 1.8124c0 0.18336-0.14922 0.33258-0.33232 0.33258-0.18309 0-0.33232-0.14922-0.33232-0.33258 0-0.18309 0.14922-0.33205 0.33232-0.33205 0.18309 0 0.33232 0.14896 0.33232 0.33205z"/>
  </g>
  <path transform="matrix(.98646 0 0 .98646 4.6487 -6.6294)" d="m69.262 137.99c-1.5994 0-2.9006 0.44322-2.9006 0.87984 0 0.65599 2.7208 1.199 2.8367 1.2257 0.01848 4e-3 0.04118 6e-3 0.06388 6e-3 0.02218 0 0.04488-2e-3 0.06309-6e-3 0.11589-0.0261 2.8375-0.55805 2.8375-1.2256 0-0.43689-1.3012-0.88011-2.9006-0.88011z" fill="#282828" filter="url(#filter3309)" opacity=".61366" stroke-width=".26398"/>
  <path d="m72.864 122.14c-2.0426 0-3.7042 1.7772-3.7042 3.5274 0 2.6302 3.4745 4.8072 3.6224 4.9138 0.02355 0.0169 0.05292 0.0254 0.08176 0.0254 0.02831 0 0.05741-8e-3 0.0807-0.0249 0.1479-0.10451 3.6235-2.2373 3.6235-4.9144 0-1.7502-1.6616-3.5274-3.7042-3.5274zm2.6387 5.0305c0 0.45906-0.37359 0.83265-0.83264 0.83265-0.45932 0-0.83291-0.37359-0.83291-0.83265 0-0.09 0.01455-0.17727 0.0418-0.25929-0.17251 4e-3 -0.34422 7e-3 -0.51329 0.0103-0.18944 3e-3 -0.37862 7e-3 -0.56542 0.0114l-0.0098 2.6e-4h-0.0048c-0.02699 0-0.05503-4e-3 -0.08334-8e-3 -0.08255 0.61013-0.60113 1.0837-1.2332 1.0837-0.68977-2.7e-4 -1.251-0.56118-1.251-1.2507 0-0.4564 0.24844-0.85249 0.61463-1.0708-0.07355-0.1225-0.0553-0.26511-0.03916-0.3638l0.03307-0.20029 0.1352-0.0135v-1.4303h1.5026c0.33576 0 0.52996 0.2495 0.59214 0.39688l0.0032 8e-3 0.0029 8e-3c0.1315 0.37968 0.23945 0.66225 0.31829 0.86863 0.02196 0.0574 0.04127 0.10795 0.05742 0.15134 0.14049 3e-3 0.26405 6e-3 0.36407 8e-3v-0.55245l0.13547-0.0757c0.07223-0.0405 0.14976-0.0609 0.23072-0.0609 0.14552 0 0.24818 0.0672 0.27622 0.0878l0.11086 0.0812-0.0029 0.13759c0 2.6e-4 -0.0045 0.21563-0.0074 0.41275 0.16801 7e-3 0.33258 0.0132 0.50694 0.0193 0.07329 3e-3 0.24474 0.01 0.3593 0.13891 0.1016 0.11483 0.10398 0.2577 0.09472 0.36936-0.01852 0.22436-0.0426 0.4101-0.07514 0.5842-0.01058 0.0571-0.01746 0.10504-0.02355 0.14472-0.0164 0.11245-0.0418 0.19633-0.07726 0.25956 0.10822 0.14129 0.17224 0.31697 0.17224 0.5035z" fill="#0b8c00" stroke-width=".26458"/>
 </g>
</svg>
