<?xml version="1.0" encoding="UTF-8" standalone="no"?>
<svg
   xmlns:osb="http://www.openswatchbook.org/uri/2009/osb"
   xmlns:dc="http://purl.org/dc/elements/1.1/"
   xmlns:cc="http://creativecommons.org/ns#"
   xmlns:rdf="http://www.w3.org/1999/02/22-rdf-syntax-ns#"
   xmlns:svg="http://www.w3.org/2000/svg"
   xmlns="http://www.w3.org/2000/svg"
   xmlns:xlink="http://www.w3.org/1999/xlink"
   xmlns:sodipodi="http://sodipodi.sourceforge.net/DTD/sodipodi-0.dtd"
   xmlns:inkscape="http://www.inkscape.org/namespaces/inkscape"
   sodipodi:docname="producer.svg"
   inkscape:version="1.0 (4035a4fb49, 2020-05-01)"
   id="svg3640"
   version="1.1"
   viewBox="0 0 7.408338 8.4666996"
   height="8.4666996mm"
   width="7.4083381mm">
  <defs
     id="defs3634">
    <clipPath
       id="clipPath2945"
       clipPathUnits="userSpaceOnUse">
      <g
         id="use2947"
         inkscape:label="Clip">
        <g
           id="g4525"
           style="fill:url(#linearGradient4541);fill-opacity:1;fill-rule:nonzero;stroke-width:1.00008;stroke-miterlimit:4;stroke-dasharray:none">
          <path
             style="fill:url(#linearGradient4529);fill-opacity:1;fill-rule:nonzero;stroke-width:1.00008;stroke-miterlimit:4;stroke-dasharray:none"
             id="path4513"
             d="M 9.46,8.846 9.458,9.319 9.455,11.716 c 1.098,-0.034 2.3,-0.052 3.438,-0.052 0.201,0 0.401,10e-4 0.6,0.002 L 12.558,8.842 Z"
             fill="#C1122B" />
          <circle
             style="fill:url(#linearGradient4531);fill-opacity:1;fill-rule:nonzero;stroke-width:1.00008;stroke-miterlimit:4;stroke-dasharray:none"
             id="circle4515"
             r="1.569"
             cy="17.454"
             cx="8.7279997"
             fill="#C1122B" />
          <path
             style="fill:url(#linearGradient4533);fill-opacity:1;fill-rule:nonzero;stroke-width:1.00008;stroke-miterlimit:4;stroke-dasharray:none"
             id="path4517"
             d="M 12.395,17.13 C 12.38,17.023 12.368,16.931 12.358,16.848 12.311,16.466 12.193,16.107 12.033,15.773 11.984,15.677 11.936,15.58 11.878,15.488 11.84,15.425 11.8,15.364 11.759,15.304 11.245,14.581 10.481,14.053 9.593,13.84 9.391,13.8 9.184,13.779 8.974,13.779 8.679,13.779 8.382,13.82 8.093,13.901 7.817,13.978 7.606,14.013 7.408,14.013 7.381,14.013 7.36,14.005 7.334,14.004 5.969,14.557 5,15.892 5,17.455 c 0,2.055 1.672,3.727 3.728,3.727 2.035,0 3.689,-1.642 3.719,-3.671 l -0.041,-0.296 z m -3.667,2.393 c -1.142,0 -2.07,-0.928 -2.07,-2.069 0,-1.141 0.928,-2.07 2.07,-2.07 1.141,0 2.069,0.929 2.069,2.07 0,1.141 -0.928,2.069 -2.069,2.069 z"
             fill="#C1122B" />
          <circle
             style="fill:url(#linearGradient4535);fill-opacity:1;fill-rule:nonzero;stroke-width:1.00008;stroke-miterlimit:4;stroke-dasharray:none"
             id="circle4519"
             r="1.006"
             cy="19.013"
             cx="20.826"
             fill="#C1122B" />
          <path
             style="fill:url(#linearGradient4537);fill-opacity:1;fill-rule:nonzero;stroke-width:1.00008;stroke-miterlimit:4;stroke-dasharray:none"
             id="path4521"
             d="m 22.72,15.398 c 0.13,-0.696 0.212,-1.403 0.271,-2.108 0.055,-0.659 -0.112,-0.814 -0.758,-0.839 -0.961,-0.034 -1.848,-0.071 -2.808,-0.109 -0.029,-0.001 -0.077,-0.022 -0.077,-0.06 0,-0.724 0.037,-2.484 0.037,-2.484 0,0 -0.189,-0.138 -0.454,-0.138 -0.116,0 -0.247,0.026 -0.383,0.103 0,0.821 0,1.654 0,2.527 0,0 -1.172,-0.031 -2.844,-0.065 -0.074,-0.002 -0.281,-0.128 -0.378,-0.392 -0.251,-0.694 -0.8,-2.045 -1.52,-4.126 0,0 -0.373,-0.888 -1.316,-0.888 -0.781,0 -4.679,0 -4.679,0 v 5.199 c 0,0 -0.353,0.148 -0.649,0.178 -0.078,0.472 -0.067,0.711 0.115,0.784 0.46,-0.15 0.942,-0.252 1.451,-0.252 0.389,0 0.761,0.061 1.122,0.149 1.119,0.237 2.101,0.923 2.748,1.879 0.034,0.048 0.064,0.097 0.096,0.147 0.094,0.151 0.179,0.306 0.255,0.47 0.083,0.167 0.154,0.338 0.217,0.515 0.004,0.012 0.008,0.024 0.011,0.037 0.127,0.368 0.206,0.754 0.238,1.156 0.101,0.014 0.196,0.036 0.289,0.036 0.007,0 0.013,0 0.02,0 2.176,-0.056 4.355,-0.06 6.529,-0.169 -0.906,0.251 -1.575,1.082 -1.575,2.067 0,1.184 0.962,2.147 2.148,2.147 1.184,0 2.147,-0.963 2.147,-2.147 0,-1.071 -0.79,-1.958 -1.816,-2.119 1.604,-0.102 1.294,-0.054 1.563,-1.498 z m -9.827,-3.235 c -1.343,0 -2.729,0.025 -3.938,0.069 l 0.003,-2.916 0.004,-0.97 3.957,-0.006 1.263,3.813 0.045,0.018 c -0.434,-0.005 -0.882,-0.008 -1.334,-0.008 z m 9.189,6.85 c 0,0.693 -0.564,1.257 -1.256,1.257 -0.692,0 -1.256,-0.564 -1.256,-1.257 0,-0.692 0.564,-1.255 1.256,-1.255 0.692,0 1.256,0.563 1.256,1.255 z"
             fill="#C1122B" />
          <path
             style="fill:url(#linearGradient4539);fill-opacity:1;fill-rule:nonzero;stroke-width:1.00008;stroke-miterlimit:4;stroke-dasharray:none"
             id="path4523"
             d="M 14,0 C 6.28,0 0,6.717 0,13.332 0,23.273 13.132,31.501 13.691,31.904 13.78,31.968 13.891,32 14,32 14.107,32 14.217,31.969 14.305,31.906 14.864,31.511 28,23.45 28,13.332 28,6.717 21.72,0 14,0 Z m 9.973,19.013 c 0,1.735 -1.412,3.147 -3.147,3.147 -1.736,0 -3.148,-1.412 -3.148,-3.147 0,-0.34 0.055,-0.67 0.158,-0.98 -0.652,0.016 -1.301,0.027 -1.94,0.039 -0.716,0.013 -1.431,0.025 -2.137,0.043 l -0.037,0.001 h -0.018 c -0.102,0 -0.208,-0.014 -0.315,-0.03 -0.312,2.306 -2.272,4.096 -4.661,4.096 C 6.121,22.181 4,20.061 4,17.455 4,15.73 4.939,14.233 6.323,13.408 6.045,12.945 6.114,12.406 6.175,12.033 L 6.3,11.276 6.811,11.225 v -4.406 -1 h 1 4.679 c 1.269,0 2.003,0.943 2.238,1.5 l 0.012,0.03 0.011,0.03 c 0.497,1.435 0.905,2.503 1.203,3.283 0.083,0.217 0.156,0.408 0.217,0.572 0.531,0.011 0.998,0.022 1.376,0.031 V 9.763 9.177 l 0.512,-0.286 c 0.273,-0.153 0.566,-0.23 0.872,-0.23 0.55,0 0.938,0.254 1.044,0.332 L 20.394,9.3 20.383,9.82 c 0,10e-4 -0.017,0.815 -0.028,1.56 0.635,0.025 1.257,0.05 1.916,0.073 0.277,0.011 0.925,0.036 1.358,0.525 0.384,0.434 0.393,0.974 0.358,1.396 -0.07,0.848 -0.161,1.55 -0.284,2.208 -0.04,0.216 -0.066,0.397 -0.089,0.547 -0.062,0.425 -0.158,0.742 -0.292,0.981 0.409,0.534 0.651,1.198 0.651,1.903 z"
             fill="#C1122B" />
        </g>
      </g>
    </clipPath>
    <linearGradient
       osb:paint="solid"
       id="linearGradient2916">
      <stop
         id="stop2914"
         offset="0"
         style="stop-color:#4f9300;stop-opacity:1;" />
    </linearGradient>
    <linearGradient
       y2="16"
       x2="28"
       y1="16"
       x1="0"
       gradientUnits="userSpaceOnUse"
       id="linearGradient4529"
       xlink:href="#linearGradient2916"
       inkscape:collect="always" />
    <linearGradient
       y2="16"
       x2="28"
       y1="16"
       x1="0"
       gradientUnits="userSpaceOnUse"
       id="linearGradient4531"
       xlink:href="#linearGradient2916"
       inkscape:collect="always" />
    <linearGradient
       y2="16"
       x2="28"
       y1="16"
       x1="0"
       gradientUnits="userSpaceOnUse"
       id="linearGradient4533"
       xlink:href="#linearGradient2916"
       inkscape:collect="always" />
    <linearGradient
       y2="16"
       x2="28"
       y1="16"
       x1="0"
       gradientUnits="userSpaceOnUse"
       id="linearGradient4535"
       xlink:href="#linearGradient2916"
       inkscape:collect="always" />
    <linearGradient
       y2="16"
       x2="28"
       y1="16"
       x1="0"
       gradientUnits="userSpaceOnUse"
       id="linearGradient4537"
       xlink:href="#linearGradient2916"
       inkscape:collect="always" />
    <linearGradient
       y2="16"
       x2="28"
       y1="16"
       x1="0"
       gradientUnits="userSpaceOnUse"
       id="linearGradient4539"
       xlink:href="#linearGradient2916"
       inkscape:collect="always" />
    <linearGradient
       y2="16"
       x2="28"
       y1="16"
       x1="0"
       gradientUnits="userSpaceOnUse"
       id="linearGradient4541"
       xlink:href="#linearGradient2916"
       inkscape:collect="always" />
  </defs>
  <sodipodi:namedview
     inkscape:window-maximized="1"
     inkscape:window-y="0"
     inkscape:window-x="0"
     inkscape:window-height="1015"
     inkscape:window-width="1920"
     showgrid="false"
     inkscape:document-rotation="0"
     inkscape:current-layer="layer1"
     inkscape:document-units="mm"
     inkscape:cy="11.891782"
     inkscape:cx="13.135307"
     inkscape:zoom="15.839192"
     inkscape:pageshadow="2"
     inkscape:pageopacity="0.0"
     borderopacity="1.0"
     bordercolor="#666666"
     pagecolor="#ffffff"
     id="base" />
  <metadata
     id="metadata3637">
    <rdf:RDF>
      <cc:Work
         rdf:about="">
        <dc:format>image/svg+xml</dc:format>
        <dc:type
           rdf:resource="http://purl.org/dc/dcmitype/StillImage" />
        <dc:title></dc:title>
      </cc:Work>
    </rdf:RDF>
  </metadata>
  <g
     transform="translate(-69.159633,-122.14258)"
     id="layer1"
     inkscape:groupmode="layer"
     inkscape:label="Layer 1">
    <path
       fill="#C1122B"
       d="m 71.662591,124.48311 -5.29e-4,0.12515 -7.94e-4,0.63421 c 0.290513,-0.009 0.608542,-0.0138 0.909638,-0.0138 0.05318,0 0.106098,2.6e-4 0.15875,5.3e-4 l -0.247386,-0.74718 z"
       id="path8"
       style="fill:#0b8c00;fill-opacity:1;stroke-width:0.264583" />
    <circle
       fill="#C1122B"
       cx="71.468918"
       cy="126.76065"
       r="0.41513124"
       id="circle10"
       style="fill:#0b8c00;fill-opacity:1;stroke-width:0.264583" />
    <path
       fill="#C1122B"
       d="m 72.439143,126.67492 c -0.004,-0.0283 -0.0071,-0.0526 -0.0098,-0.0746 -0.01244,-0.10107 -0.04366,-0.19606 -0.08599,-0.28443 -0.01296,-0.0254 -0.02566,-0.0511 -0.04101,-0.0754 -0.01005,-0.0167 -0.02064,-0.0328 -0.03149,-0.0487 -0.135995,-0.19129 -0.338137,-0.33099 -0.573087,-0.38735 -0.05345,-0.0106 -0.108215,-0.0161 -0.163777,-0.0161 -0.07805,0 -0.156634,0.0109 -0.233098,0.0323 -0.07303,0.0204 -0.128852,0.0296 -0.18124,0.0296 -0.0071,0 -0.0127,-0.002 -0.01958,-0.002 -0.361156,0.14632 -0.617537,0.49954 -0.617537,0.91308 0,0.54372 0.442383,0.9861 0.986366,0.9861 0.538427,0 0.976048,-0.43444 0.983986,-0.97128 l -0.01085,-0.0783 z m -0.970227,0.63315 c -0.302154,0 -0.547687,-0.24553 -0.547687,-0.54742 0,-0.30189 0.245533,-0.54769 0.547687,-0.54769 0.30189,0 0.547423,0.2458 0.547423,0.54769 0,0.30189 -0.245533,0.54742 -0.547423,0.54742 z"
       id="path12"
       style="fill:#0b8c00;fill-opacity:1;stroke-width:0.264583" />
    <circle
       fill="#C1122B"
       cx="74.669846"
       cy="127.17313"
       r="0.26617083"
       id="circle14"
       style="fill:#0b8c00;fill-opacity:1;stroke-width:0.264583" />
    <path
       fill="#C1122B"
       d="m 75.170966,126.21666 c 0.0344,-0.18415 0.05609,-0.37121 0.0717,-0.55774 0.01455,-0.17436 -0.02963,-0.21537 -0.200554,-0.22198 -0.254264,-0.009 -0.48895,-0.0188 -0.74295,-0.0288 -0.0077,-2.7e-4 -0.02037,-0.006 -0.02037,-0.0159 0,-0.19156 0.0098,-0.65722 0.0098,-0.65722 0,0 -0.05001,-0.0365 -0.120121,-0.0365 -0.03069,0 -0.06535,0.007 -0.101335,0.0272 0,0.21722 0,0.43762 0,0.6686 0,0 -0.310092,-0.008 -0.752475,-0.0172 -0.01958,-5.3e-4 -0.07435,-0.0339 -0.100013,-0.10372 -0.06641,-0.18362 -0.211667,-0.54107 -0.402167,-1.09167 0,0 -0.09869,-0.23495 -0.348191,-0.23495 -0.20664,0 -1.237986,0 -1.237986,0 v 1.37557 c 0,0 -0.0934,0.0392 -0.171714,0.0471 -0.02064,0.12488 -0.01773,0.18812 0.03043,0.20743 0.121708,-0.0397 0.249237,-0.0667 0.38391,-0.0667 0.102923,0 0.201348,0.0161 0.296863,0.0394 0.296069,0.0627 0.555889,0.24421 0.727075,0.49715 0.009,0.0127 0.01693,0.0257 0.0254,0.0389 0.02487,0.04 0.04736,0.081 0.06747,0.12435 0.02196,0.0442 0.04075,0.0894 0.05741,0.13626 0.0011,0.003 0.0021,0.006 0.0029,0.01 0.0336,0.0974 0.0545,0.1995 0.06297,0.30586 0.02672,0.004 0.05186,0.01 0.07646,0.01 0.0019,0 0.0034,0 0.0053,0 0.575733,-0.0148 1.15226,-0.0159 1.727464,-0.0447 -0.239712,0.0664 -0.416719,0.28628 -0.416719,0.54689 0,0.31327 0.25453,0.56806 0.568325,0.56806 0.313267,0 0.568061,-0.25479 0.568061,-0.56806 0,-0.28337 -0.209021,-0.51805 -0.480483,-0.56065 0.424391,-0.027 0.34237,-0.0143 0.413543,-0.39635 z m -2.60006,-0.85592 c -0.355336,0 -0.722048,0.007 -1.041929,0.0182 l 7.93e-4,-0.77152 0.0011,-0.25665 1.046956,-0.002 0.334169,1.00885 0.01191,0.005 c -0.114829,-0.001 -0.233362,-0.002 -0.352954,-0.002 z m 2.431256,1.81239 c 0,0.18336 -0.149225,0.33258 -0.332317,0.33258 -0.183091,0 -0.332316,-0.14922 -0.332316,-0.33258 0,-0.18309 0.149225,-0.33205 0.332316,-0.33205 0.183092,0 0.332317,0.14896 0.332317,0.33205 z"
       id="path16"
       style="fill:#0b8c00;fill-opacity:1;stroke-width:0.264583" />
    <path
       fill="#C1122B"
       d="m 72.8638,122.14261 c -2.042584,0 -3.704167,1.77721 -3.704167,3.52742 0,2.63023 3.474508,4.80722 3.62241,4.91385 0.02355,0.0169 0.05292,0.0254 0.08176,0.0254 0.02831,0 0.05741,-0.008 0.0807,-0.0249 0.147902,-0.10451 3.623468,-2.23732 3.623468,-4.91438 0,-1.75021 -1.661583,-3.52742 -3.704166,-3.52742 z m 2.638689,5.03052 c 0,0.45906 -0.373591,0.83265 -0.832644,0.83265 -0.459316,0 -0.832908,-0.37359 -0.832908,-0.83265 0,-0.09 0.01455,-0.17727 0.0418,-0.25929 -0.172508,0.004 -0.344223,0.007 -0.513291,0.0103 -0.189442,0.003 -0.378619,0.007 -0.565415,0.0114 l -0.0098,2.6e-4 h -0.0048 c -0.02699,0 -0.05503,-0.004 -0.08334,-0.008 -0.08255,0.61013 -0.601133,1.08374 -1.233223,1.08374 -0.689768,-2.7e-4 -1.25095,-0.56118 -1.25095,-1.25069 0,-0.4564 0.248444,-0.85249 0.614627,-1.07077 -0.07355,-0.1225 -0.0553,-0.26511 -0.03916,-0.3638 l 0.03307,-0.20029 0.135202,-0.0135 v -1.16576 -0.26458 h 0.264583 1.237986 c 0.335756,0 0.52996,0.2495 0.592137,0.39688 l 0.0032,0.008 0.0029,0.008 c 0.131498,0.37968 0.239448,0.66225 0.318293,0.86863 0.02196,0.0574 0.04127,0.10795 0.05742,0.15134 0.140494,0.003 0.264054,0.006 0.364067,0.008 v -0.3974 -0.15505 l 0.135466,-0.0757 c 0.07223,-0.0405 0.149755,-0.0609 0.230717,-0.0609 0.145521,0 0.248179,0.0672 0.276225,0.0878 l 0.11086,0.0812 -0.0029,0.13759 c 0,2.6e-4 -0.0045,0.21563 -0.0074,0.41275 0.16801,0.007 0.332581,0.0132 0.506941,0.0193 0.07329,0.003 0.24474,0.01 0.359305,0.13891 0.1016,0.11483 0.103981,0.2577 0.09472,0.36936 -0.01852,0.22436 -0.0426,0.4101 -0.07514,0.5842 -0.01058,0.0571 -0.01746,0.10504 -0.02355,0.14472 -0.0164,0.11245 -0.0418,0.19633 -0.07726,0.25956 0.108215,0.14129 0.172244,0.31697 0.172244,0.5035 z"
       id="path18-3"
       style="fill:#0b8c00;fill-opacity:1;stroke-width:0.264583" />
  </g>
</svg>
